<svg width="191" height="27" viewBox="0 0 191 27" fill="none" xmlns="http://www.w3.org/2000/svg">
<path d="M3.536 22C2.78933 22 2.20267 21.8933 1.776 21.68C1.37067 21.4453 1.08267 21.04 0.912 20.464C0.741333 19.8667 0.656 19.0347 0.656 17.968V0.879999H4.304V17.968C4.304 18.928 4.432 19.7067 4.688 20.304C4.96533 20.88 5.584 21.168 6.544 21.168H6.992V22H3.536ZM10.9887 22V4.912C10.9887 3.952 10.8501 3.184 10.5727 2.608C10.3167 2.01067 9.70875 1.712 8.74875 1.712H8.26875V0.879999H16.8448C21.1754 0.879999 24.4181 1.81867 26.5728 3.696C28.7274 5.552 29.8048 8.09067 29.8048 11.312C29.8048 13.4027 29.3461 15.2587 28.4288 16.88C27.5114 18.48 26.1461 19.7387 24.3328 20.656C22.5408 21.552 20.3221 22 17.6768 22H10.9887ZM17.5808 20.784C19.1168 20.784 20.4821 20.4107 21.6768 19.664C22.8714 18.896 23.8101 17.8187 24.4928 16.432C25.1968 15.024 25.5487 13.36 25.5487 11.44C25.5487 9.56267 25.2074 7.93067 24.5247 6.544C23.8421 5.136 22.8928 4.048 21.6768 3.28C20.4821 2.49067 19.0954 2.096 17.5168 2.096C17.0474 2.096 16.5994 2.11733 16.1728 2.16C15.7674 2.20267 15.2554 2.29867 14.6368 2.448V20.496C15.1061 20.5813 15.4901 20.6453 15.7887 20.688C16.1088 20.7307 16.4074 20.7627 16.6848 20.784C16.9621 20.784 17.2608 20.784 17.5808 20.784ZM34.3712 22V4.912C34.3712 3.952 34.2326 3.184 33.9552 2.608C33.6992 2.01067 33.0912 1.712 32.1312 1.712H31.6512V0.879999H35.1072C35.8539 0.879999 36.4299 0.997332 36.8352 1.232C37.2619 1.46667 37.5606 1.872 37.7312 2.448C37.9019 3.024 37.9872 3.84533 37.9872 4.912V20.624H49.1553V22H34.3712ZM53.137 22.448C52.5823 22.448 52.1343 22.2773 51.793 21.936C51.4517 21.5733 51.281 21.1147 51.281 20.56C51.281 20.048 51.4517 19.6107 51.793 19.248C52.1343 18.8853 52.5823 18.704 53.137 18.704C53.713 18.704 54.161 18.8853 54.481 19.248C54.8223 19.6107 54.993 20.048 54.993 20.56C54.993 21.1147 54.8223 21.5733 54.481 21.936C54.1397 22.2773 53.6917 22.448 53.137 22.448ZM56.5187 26.384V25.552C57.1801 25.5093 57.7347 25.2747 58.1827 24.848C58.6307 24.4213 58.9614 23.76 59.1747 22.864C59.4094 21.9893 59.5267 20.8373 59.5267 19.408V0.879999H63.1747V19.408C63.1747 21.1573 62.9827 22.5333 62.5987 23.536C62.2361 24.56 61.5747 25.2853 60.6147 25.712C59.6547 26.16 58.2894 26.384 56.5187 26.384ZM69.2062 22V4.912C69.2062 3.952 69.0676 3.184 68.7902 2.608C68.5342 2.01067 67.9262 1.712 66.9662 1.712H66.4862V0.879999H80.4062C81.1529 0.879999 81.7182 1.008 82.1022 1.264C82.4862 1.49867 82.7529 1.81867 82.9022 2.224C83.0516 2.608 83.1262 3.01333 83.1262 3.44V6.032H82.2942C82.2942 4.70933 81.9422 3.74933 81.2382 3.152C80.5556 2.55467 79.5742 2.256 78.2942 2.256H72.8222V10.384H81.2702V11.76H72.8222V20.624H78.3582C79.6382 20.624 80.6942 20.368 81.5262 19.856C82.3582 19.3227 83.0409 18.384 83.5742 17.04L84.3422 17.296L83.3182 20.016C83.1262 20.6347 82.8382 21.1253 82.4542 21.488C82.0702 21.8293 81.4836 22 80.6942 22H69.2062ZM94.1887 22.288L87.5647 4.624C87.0954 3.408 86.6154 2.56533 86.1247 2.096C85.6554 1.62667 85.0261 1.34933 84.2367 1.264V0.623999C84.3221 0.623999 84.5141 0.613332 84.8127 0.591999C85.1114 0.570666 85.3354 0.559999 85.4847 0.559999C86.1674 0.559999 86.8821 0.645332 87.6287 0.815998C88.3754 0.965332 89.0794 1.328 89.7407 1.904C90.4234 2.48 90.9994 3.38667 91.4687 4.624L95.7887 16.208L98.8927 7.216L97.9007 4.624C97.4314 3.408 96.9301 2.56533 96.3967 2.096C95.8847 1.62667 95.2447 1.34933 94.4767 1.264V0.623999C94.5621 0.623999 94.7327 0.613332 94.9887 0.591999C95.2661 0.570666 95.4794 0.559999 95.6287 0.559999C96.3327 0.559999 97.0581 0.645332 97.8047 0.815998C98.5514 0.986665 99.2554 1.36 99.9167 1.936C100.599 2.49067 101.165 3.38667 101.613 4.624L106.093 16.56L111.565 0.879999H113.037L105.549 22.288H104.525L99.6927 9.392L95.2127 22.288H94.1887ZM117.377 22V4.912C117.377 3.952 117.239 3.184 116.961 2.608C116.705 2.01067 116.097 1.712 115.137 1.712H114.657V0.879999H128.577C129.324 0.879999 129.889 1.008 130.273 1.264C130.657 1.49867 130.924 1.81867 131.073 2.224C131.223 2.608 131.297 3.01333 131.297 3.44V6.032H130.465C130.465 4.70933 130.113 3.74933 129.409 3.152C128.727 2.55467 127.745 2.256 126.465 2.256H120.993V10.384H129.441V11.76H120.993V20.624H126.529C127.809 20.624 128.865 20.368 129.697 19.856C130.529 19.3227 131.212 18.384 131.745 17.04L132.513 17.296L131.489 20.016C131.297 20.6347 131.009 21.1253 130.625 21.488C130.241 21.8293 129.655 22 128.865 22H117.377ZM136.76 22V4.912C136.76 3.952 136.621 3.184 136.344 2.608C136.088 2.01067 135.48 1.712 134.52 1.712H134.04V0.879999H137.496C138.243 0.879999 138.819 0.997332 139.224 1.232C139.651 1.46667 139.949 1.872 140.12 2.448C140.291 3.024 140.376 3.84533 140.376 4.912V20.624H151.544V22H136.76ZM169.107 22.32C168.382 22.32 167.689 22.1707 167.027 21.872C166.387 21.5733 165.747 21.0933 165.107 20.432C164.489 19.7493 163.827 18.832 163.123 17.68L159.923 12.304H158.259V22H154.611V4.912C154.611 3.952 154.473 3.184 154.195 2.608C153.939 2.01067 153.331 1.712 152.371 1.712H151.891V0.879999H160.531C161.086 0.879999 161.726 0.922666 162.451 1.008C163.198 1.072 163.945 1.22133 164.691 1.456C165.438 1.66933 166.131 1.98933 166.771 2.416C167.411 2.84267 167.923 3.39733 168.307 4.08C168.713 4.76267 168.915 5.616 168.915 6.64C168.915 7.81333 168.659 8.76267 168.147 9.488C167.635 10.2133 166.985 10.7787 166.195 11.184C165.406 11.568 164.585 11.8667 163.731 12.08L167.091 17.68C167.902 19.0453 168.638 19.9627 169.299 20.432C169.982 20.9013 170.622 21.1787 171.219 21.264V22C171.049 22.0853 170.761 22.16 170.355 22.224C169.95 22.288 169.534 22.32 169.107 22.32ZM158.259 11.088H160.339C160.83 11.088 161.342 11.0133 161.875 10.864C162.409 10.6933 162.91 10.4373 163.379 10.096C163.849 9.75467 164.222 9.296 164.499 8.72C164.798 8.144 164.947 7.44 164.947 6.608C164.947 5.776 164.798 5.072 164.499 4.496C164.222 3.92 163.849 3.46133 163.379 3.12C162.931 2.75733 162.441 2.50133 161.907 2.352C161.374 2.18133 160.862 2.096 160.371 2.096C160.137 2.096 159.827 2.11733 159.443 2.16C159.059 2.20267 158.665 2.26667 158.259 2.352V11.088ZM179.725 22V13.424L174.125 5.04C173.741 4.44267 173.315 3.89867 172.845 3.408C172.397 2.896 171.917 2.46933 171.405 2.128C170.893 1.76533 170.328 1.56267 169.709 1.52V0.879999H172.973C173.763 0.879999 174.467 1.06133 175.085 1.424C175.725 1.76533 176.28 2.20267 176.749 2.736C177.24 3.26933 177.656 3.824 177.997 4.4L182.477 11.216L188.877 0.879999H190.701L183.341 12.848V22H179.725Z" fill="black"/>
</svg>
